<svg xmlns="http://www.w3.org/2000/svg" width="20mm" height="20mm" viewBox="0 0 56.6929 56.6929"><defs><style>.a{fill:none;stroke:#000;stroke-miterlimit:10;stroke-width:0.5px;}</style></defs><title>15102034</title><line class="a" y1="18.9103" x2="56.6929" y2="18.9103"/><line class="a" y1="9.4224" x2="56.6929" y2="9.4224"/><line class="a" x1="0.1094" y1="-0.0655" x2="56.6929" y2="-0.0655"/><line class="a" x1="5.9528" y1="9.4224" x2="5.9528" y2="-0.0655"/><line class="a" x1="5.9528" y1="28.3981" x2="5.9528" y2="18.9103"/><line class="a" x1="5.9528" y1="47.3738" x2="5.9528" y2="37.886"/><line class="a" x1="20.4094" y1="18.9103" x2="20.4094" y2="9.4224"/><line class="a" x1="48.7559" y1="18.9103" x2="48.7559" y2="9.4224"/><line class="a" x1="20.4094" y1="37.75" x2="20.4094" y2="28.3981"/><line class="a" x1="48.7559" y1="37.75" x2="48.7559" y2="28.3981"/><line class="a" x1="34.2992" y1="9.4224" x2="34.2992" y2="-0.0655"/><line class="a" x1="34.2992" y1="28.3981" x2="34.2992" y2="18.9103"/><line class="a" x1="34.2992" y1="47.3738" x2="34.2992" y2="37.886"/><line class="a" y1="28.3981" x2="56.6929" y2="28.3981"/><line class="a" y1="37.886" x2="56.6929" y2="37.886"/><line class="a" x1="20.4094" y1="56.8617" x2="20.4094" y2="47.3738"/><line class="a" x1="48.7559" y1="56.8617" x2="48.7559" y2="47.3738"/><line class="a" y1="56.8617" x2="56.6929" y2="56.8617"/><line class="a" y1="47.3739" x2="56.6929" y2="47.3739"/></svg>