<svg xmlns="http://www.w3.org/2000/svg" width="20mm" height="20mm" viewBox="0 0 56.6929 56.6929"><defs><style>.a,.b{fill:none;}.b{stroke:#000;stroke-linecap:round;stroke-miterlimit:10;stroke-width:0.5px;}.c{font-size:18px;font-family:ArialMT, Arial;}</style></defs><title>15104018</title><rect class="a" width="56.6929" height="56.6929"/><line class="b" x1="5.0459" y1="10.43" x2="25.9541" y2="2.82"/><line class="b" x1="16.7256" y1="9.9922" x2="14.2744" y2="3.2578"/><line class="b" x1="7.252" y1="36.7915" x2="29.4173" y2="34.8522"/><line class="b" x1="18.647" y1="39.3915" x2="18.0223" y2="32.2522"/><line class="b" x1="23.6523" y1="51.9307" x2="45.332" y2="46.9256"/><line class="b" x1="35.2982" y1="52.9196" x2="33.6861" y2="45.9367"/><line class="b" x1="31.3153" y1="5.9472" x2="53.2273" y2="9.8109"/><line class="b" x1="41.6491" y1="11.408" x2="42.8936" y2="4.3502"/><line class="b" x1="35.3068" y1="30.1066" x2="55.4721" y2="39.5098"/><line class="b" x1="43.8751" y1="38.0558" x2="46.9038" y2="31.5606"/><line class="b" x1="-4.6847" y1="45.6323" x2="17.2273" y2="49.4959"/><line class="b" x1="5.6491" y1="51.093" x2="6.8936" y2="44.0352"/><line class="b" x1="52.0083" y1="45.6323" x2="73.9202" y2="49.4959"/><line class="b" x1="40.3639" y1="21.4242" x2="62.448" y2="18.7126"/><line class="b" x1="51.8426" y1="23.625" x2="50.9693" y2="16.5118"/><line class="b" x1="-16.0456" y1="21.4242" x2="6.0386" y2="18.7126"/><text class="c" transform="translate(18 27.5)">M</text></svg>