<svg xmlns="http://www.w3.org/2000/svg" width="20mm" height="20mm" viewBox="0 0 56.6929 56.6929"><defs><style>.a,.b{fill:none;stroke:#000;stroke-miterlimit:10;stroke-width:0.5px;}.b{stroke-linecap:square;}</style></defs><title>15102042</title><circle class="a" cx="48.344" cy="5.112" r="2.8346"/><line class="b" x1="0.2126" y1="18.9575" x2="56.5591" y2="18.9575"/><line class="b" x1="-0.0374" y1="9.4696" x2="56.6555" y2="9.4696"/><line class="b" x1="0.2126" y1="-0.0182" x2="56.5591" y2="-0.0182"/><line class="b" x1="6.1654" y1="9.4696" x2="6.1654" y2="-0.0182"/><line class="b" x1="6.1654" y1="28.4454" x2="6.1654" y2="18.9575"/><line class="a" x1="6.1654" y1="47.4211" x2="6.1654" y2="37.9333"/><line class="b" x1="20.622" y1="18.9575" x2="20.622" y2="9.4696"/><line class="b" x1="48.9685" y1="18.9575" x2="48.9685" y2="9.4696"/><line class="b" x1="20.622" y1="37.7972" x2="20.622" y2="28.4454"/><line class="b" x1="48.9685" y1="37.7972" x2="48.9685" y2="28.4454"/><line class="b" x1="34.5118" y1="9.4696" x2="34.5118" y2="-0.0182"/><line class="b" x1="34.5118" y1="28.4454" x2="34.5118" y2="18.9575"/><line class="a" x1="34.5118" y1="47.4211" x2="34.5118" y2="37.9333"/><line class="b" x1="0.2126" y1="28.4454" x2="56.5591" y2="28.4454"/><line class="b" x1="0.2126" y1="37.9332" x2="56.5591" y2="37.9332"/><line class="a" x1="20.622" y1="56.909" x2="20.622" y2="47.4211"/><line class="a" x1="48.9685" y1="56.909" x2="48.9685" y2="47.4211"/><line class="b" x1="0.2126" y1="56.909" x2="56.5591" y2="56.909"/><line class="b" x1="0.2126" y1="47.4211" x2="56.5591" y2="47.4211"/><circle cx="20.4518" cy="24.0787" r="0.6973"/><circle cx="20.4518" cy="5.112" r="0.6973"/><circle cx="48.344" cy="5.112" r="0.6973"/><circle cx="34.119" cy="14.3164" r="0.6973"/><circle cx="6.2268" cy="14.3164" r="0.6973"/><circle cx="6.2268" cy="33.2831" r="0.6973"/><circle cx="34.119" cy="33.2831" r="0.6973"/><circle cx="48.344" cy="24.0787" r="0.6973"/><circle cx="20.4518" cy="42.4875" r="0.6973"/><circle cx="6.2382" cy="52.7454" r="0.7087"/><circle cx="34.5846" cy="52.7454" r="0.7087"/><circle class="a" cx="20.3386" cy="5.112" r="2.8346"/><circle class="a" cx="48.344" cy="24.0787" r="2.8346"/><circle class="a" cx="34.119" cy="14.3164" r="2.8346"/><circle class="a" cx="6.2268" cy="14.3164" r="2.8346"/><circle class="a" cx="6.1654" cy="33.2831" r="2.8346"/><circle class="a" cx="34.119" cy="33.2831" r="2.8346"/><circle class="a" cx="20.4518" cy="42.4875" r="2.8346"/><circle cx="48.7983" cy="42.4875" r="0.6973"/><circle class="a" cx="48.7983" cy="42.4875" r="2.8346"/><circle class="a" cx="6.1654" cy="52.7454" r="2.8346"/><circle class="a" cx="34.5846" cy="52.7454" r="2.8346"/><circle class="a" cx="20.3386" cy="24.0787" r="2.8346"/></svg>