<?xml version="1.0" encoding="UTF-8" standalone="no"?>
<svg
   xmlns:dc="http://purl.org/dc/elements/1.1/"
   xmlns:cc="http://creativecommons.org/ns#"
   xmlns:rdf="http://www.w3.org/1999/02/22-rdf-syntax-ns#"
   xmlns:svg="http://www.w3.org/2000/svg"
   xmlns="http://www.w3.org/2000/svg"
   height="54.125"
   width="54.125"
   version="1.1"
   id="svg582">
  <defs
     id="defs586" />
  <metadata
     id="metadata2">citation: U.S. Geological Survey, 2006, FGDC Digital Cartographic Standard for Geologic Map Symbolization (PostScript Implementation): U.S. Geological Survey Techniques and Methods 11-A2 [pubs.usgs.gov/tm/2006/11A02/]. converted by CEC Geology LLC 2018 from the USGS lithologic gs converted to inkscape by the University of Otago.<rdf:RDF>
  <cc:Work
     rdf:about="">
    <dc:format>image/svg+xml</dc:format>
    <dc:type
       rdf:resource="http://purl.org/dc/dcmitype/StillImage" />
    <dc:title></dc:title>
  </cc:Work>
</rdf:RDF>
</metadata>
  <g
     fill="none"
     height="54.125"
     stroke="#231f20"
     width="54.125"
     id="g580">
    <g
       stroke-linecap="round"
       stroke-width=".7"
       id="g516">
      <path
         d="m0 0 .01.01"
         transform="translate(25.058335 27.123635)"
         id="path4" />
      <path
         d="m0 0 .01.01"
         transform="translate(.673235 41.208635)"
         id="path6" />
      <path
         d="m0 0 .01.01"
         transform="translate(3.203235 39.778635)"
         id="path8" />
      <path
         d="m0 0 .01.01"
         transform="translate(5.898235 41.538635)"
         id="path10" />
      <path
         d="m0 0 .01.01"
         transform="translate(5.898235 38.458635)"
         id="path12" />
      <path
         d="m0 0 .01.01"
         transform="translate(9.253235 40.548635)"
         id="path14" />
      <path
         d="m0 0 .01.01"
         transform="translate(12.223235 41.593635)"
         id="path16" />
      <path
         d="m0 0 .01.01"
         transform="translate(9.308235 37.028635)"
         id="path18" />
      <path
         d="m0 0 .01.01"
         transform="translate(12.686835 35.020235)"
         id="path20" />
      <path
         d="m0 0 .01.01"
         transform="translate(12.520235 38.186835)"
         id="path22" />
      <path
         d="m0 0 .01.01"
         transform="translate(15.083235 40.328635)"
         id="path24" />
      <path
         d="m0 0 .01.01"
         transform="translate(18.166035 42.353535)"
         id="path26" />
      <path
         d="m0 0 .01.01"
         transform="translate(4.028235 36.368635)"
         id="path28" />
      <path
         d="m0 0 .01.01"
         transform="translate(1.003235 36.863635)"
         id="path30" />
      <path
         d="m0 0 .01.01"
         transform="translate(2.488235 33.893635)"
         id="path32" />
      <path
         d="m0 0 .01.01"
         transform="translate(5.623235 33.233635)"
         id="path34" />
      <path
         d="m0 0 .01.01"
         transform="translate(8.868235 33.343635)"
         id="path36" />
      <path
         d="m0 0 .01.01"
         transform="translate(16.073235 35.488635)"
         id="path38" />
      <path
         d="m0 0 .01.01"
         transform="translate(14.686835 32.520235)"
         id="path40" />
      <path
         d="m0 0 .01.01"
         transform="translate(11.948235 31.198535)"
         id="path42" />
      <path
         d="m0 0 .01.01"
         transform="translate(17.613235 32.408535)"
         id="path44" />
      <path
         d="m0 0 .01.01"
         transform="translate(19.483335 35.268635)"
         id="path46" />
      <path
         d="m0 0 .01.01"
         transform="translate(18.438235 39.613635)"
         id="path48" />
      <path
         d="m0 0 .01.01"
         transform="translate(9.228535 44.041035)"
         id="path50" />
      <path
         d="m0 0 .01.01"
         transform="translate(22.783335 41.153635)"
         id="path52" />
      <path
         d="m0 0 .01.01"
         transform="translate(21.408335 38.403635)"
         id="path54" />
      <path
         d="m0 0 .01.01"
         transform="translate(22.453335 35.268635)"
         id="path56" />
      <path
         d="m0 0 .01.01"
         transform="translate(20.913335 32.298635)"
         id="path58" />
      <path
         d="m0 0 .01.01"
         transform="translate(24.818335 38.018635)"
         id="path60" />
      <path
         d="m0 0 .01.01"
         transform="translate(26.798335 40.603635)"
         id="path62" />
      <path
         d="m0 0 .01.01"
         transform="translate(25.973335 35.323635)"
         id="path64" />
      <path
         d="m0 0 .01.01"
         transform="translate(24.158335 32.133635)"
         id="path66" />
      <path
         d="m0 0 .01.01"
         transform="translate(28.503335 37.083635)"
         id="path68" />
      <path
         d="m0 0 .01.01"
         transform="translate(.893235 31.088535)"
         id="path70" />
      <path
         d="m0 0 .01.01"
         transform="translate(4.083235 30.593535)"
         id="path72" />
      <path
         d="m0 0 .01.01"
         transform="translate(7.328235 30.373535)"
         id="path74" />
      <path
         d="m0 0 .01.01"
         transform="translate(30.373335 39.998635)"
         id="path76" />
      <path
         d="m0 0 .01.01"
         transform="translate(30.103535 34.853535)"
         id="path78" />
      <path
         d="m0 0 .01.01"
         transform="translate(32.853535 36.353535)"
         id="path80" />
      <path
         d="m0 0 .01.01"
         transform="translate(31.363335 31.638635)"
         id="path82" />
      <path
         d="m0 0 .01.01"
         transform="translate(34.718335 32.573635)"
         id="path84" />
      <path
         d="m0 0 .01.01"
         transform="translate(36.148435 35.928635)"
         id="path86" />
      <path
         d="m0 0 .01.01"
         transform="translate(36.038435 40.438635)"
         id="path88" />
      <path
         d="m0 0 .01.01"
         transform="translate(39.118435 37.578635)"
         id="path90" />
      <path
         d="m0 0 .01.01"
         transform="translate(41.098435 40.603635)"
         id="path92" />
      <path
         d="m0 0 .01.01"
         transform="translate(43.188435 37.468635)"
         id="path94" />
      <path
         d="m0 0 .01.01"
         transform="translate(40.383435 34.168635)"
         id="path96" />
      <path
         d="m0 0 .01.01"
         transform="translate(38.018435 31.418535)"
         id="path98" />
      <path
         d="m0 0 .01.01"
         transform="translate(44.673435 40.328635)"
         id="path100" />
      <path
         d="m0 0 .01.01"
         transform="translate(48.603535 44.353535)"
         id="path102" />
      <path
         d="m0 0 .01.01"
         transform="translate(51.853535 47.103535)"
         id="path104" />
      <path
         d="m0 0 .01.01"
         transform="translate(52.353535 43.103535)"
         id="path106" />
      <path
         d="m0 0 .01.01"
         transform="translate(49.478535 48.603535)"
         id="path108" />
      <path
         d="m0 0 .01.01"
         transform="translate(46.353535 46.103535)"
         id="path110" />
      <path
         d="m0 0 .01.01"
         transform="translate(42.853535 47.728535)"
         id="path112" />
      <path
         d="m0 0 .01.01"
         transform="translate(45.541035 48.978535)"
         id="path114" />
      <path
         d="m0 0 .01.01"
         transform="translate(52.291035 51.541035)"
         id="path116" />
      <path
         d="m0 0 .01.01"
         transform="translate(46.978535 52.228535)"
         id="path118" />
      <path
         d="m0 0 .01.01"
         transform="translate(43.166035 51.791035)"
         id="path120" />
      <path
         d="m0 0 .01.01"
         transform="translate(43.041035 43.541035)"
         id="path122" />
      <path
         d="m0 0 .01.01"
         transform="translate(40.166035 49.853535)"
         id="path124" />
      <path
         d="m0 0 .01.01"
         transform="translate(37.103535 51.353535)"
         id="path126" />
      <path
         d="m0 0 .01.01"
         transform="translate(34.186835 52.623335)"
         id="path128" />
      <path
         d="m0 0 .01.01"
         transform="translate(36.791035 48.416035)"
         id="path130" />
      <path
         d="m0 0 .01.01"
         transform="translate(35.103535 45.666035)"
         id="path132" />
      <path
         d="m0 0 .01.01"
         transform="translate(32.916035 42.291035)"
         id="path134" />
      <path
         d="m0 0 .01.01"
         transform="translate(31.728535 46.103535)"
         id="path136" />
      <path
         d="m0 0 .01.01"
         transform="translate(31.416035 49.728535)"
         id="path138" />
      <path
         d="m0 0 .01.01"
         transform="translate(27.603535 47.228535)"
         id="path140" />
      <path
         d="m0 0 .01.01"
         transform="translate(29.228535 43.353535)"
         id="path142" />
      <path
         d="m0 0 .01.01"
         transform="translate(29.353535 52.353535)"
         id="path144" />
      <path
         d="m0 0 .01.01"
         transform="translate(28.103535 49.353535)"
         id="path146" />
      <path
         d="m0 0 .01.01"
         transform="translate(25.853535 52.103535)"
         id="path148" />
      <path
         d="m0 0 .01.01"
         transform="translate(22.541035 52.666035)"
         id="path150" />
      <path
         d="m0 0 .01.01"
         transform="translate(24.166035 46.603535)"
         id="path152" />
      <path
         d="m0 0 .01.01"
         transform="translate(22.291035 44.166035)"
         id="path154" />
      <path
         d="m0 0 .01.01"
         transform="translate(20.791035 46.478535)"
         id="path156" />
      <path
         d="m0 0 .01.01"
         transform="translate(22.666035 49.666035)"
         id="path158" />
      <path
         d="m0 0 .01.01"
         transform="translate(18.791035 49.666035)"
         id="path160" />
      <path
         d="m0 0 .01.01"
         transform="translate(5.853535 44.416035)"
         id="path162" />
      <path
         d="m0 0 .01.01"
         transform="translate(2.853535 43.416035)"
         id="path164" />
      <path
         d="m0 0 .01.01"
         transform="translate(.353535 45.478535)"
         id="path166" />
      <path
         d="m0 0 .01.01"
         transform="translate(8.166035 46.853535)"
         id="path168" />
      <path
         d="m0 0 .01.01"
         transform="translate(10.666035 48.978535)"
         id="path170" />
      <path
         d="m0 0 .01.01"
         transform="translate(9.103535 52.666035)"
         id="path172" />
      <path
         d="m0 0 .01.01"
         transform="translate(7.603535 50.103535)"
         id="path174" />
      <path
         d="m0 0 .01.01"
         transform="translate(5.520235 53.020235)"
         id="path176" />
      <path
         d="m0 0 .01.01"
         transform="translate(3.666035 47.978535)"
         id="path178" />
      <path
         d="m0 0 .01.01"
         transform="translate(4.353535 50.353535)"
         id="path180" />
      <path
         d="m0 0 .01.01"
         transform="translate(1.353535 52.853535)"
         id="path182" />
      <path
         d="m0 0 .01.01"
         transform="translate(.353535 49.228535)"
         id="path184" />
      <path
         d="m0 0 .01.01"
         transform="translate(17.916035 47.478535)"
         id="path186" />
      <path
         d="m0 0 .01.01"
         transform="translate(17.791035 45.166035)"
         id="path188" />
      <path
         d="m0 0 .01.01"
         transform="translate(13.791035 43.791035)"
         id="path190" />
      <path
         d="m0 0 .01.01"
         transform="translate(14.478535 47.853535)"
         id="path192" />
      <path
         d="m0 0 .01.01"
         transform="translate(16.166035 51.853535)"
         id="path194" />
      <path
         d="m0 0 .01.01"
         transform="translate(13.853535 50.353535)"
         id="path196" />
      <path
         d="m0 0 .01.01"
         transform="translate(12.353535 52.853535)"
         id="path198" />
      <path
         d="m0 0 .01.01"
         transform="translate(39.478535 46.478535)"
         id="path200" />
      <path
         d="m0 0 .01.01"
         transform="translate(37.853535 43.103535)"
         id="path202" />
      <path
         d="m0 0 .01.01"
         transform="translate(47.533435 38.293635)"
         id="path204" />
      <path
         d="m0 0 .01.01"
         transform="translate(48.103535 41.853535)"
         id="path206" />
      <path
         d="m0 0 .01.01"
         transform="translate(51.853535 24.603535)"
         id="path208" />
      <path
         d="m0 0 .01.01"
         transform="translate(52.853535 21.853535)"
         id="path210" />
      <path
         d="m0 0 .01.01"
         transform="translate(52.603535 28.103535)"
         id="path212" />
      <path
         d="m0 0 .01.01"
         transform="translate(46.763435 34.938635)"
         id="path214" />
      <path
         d="m0 0 .01.01"
         transform="translate(50.603535 36.603535)"
         id="path216" />
      <path
         d="m0 0 .01.01"
         transform="translate(50.353535 30.853535)"
         id="path218" />
      <path
         d="m0 0 .01.01"
         transform="translate(49.853535 3.103535)"
         id="path220" />
      <path
         d="m0 0 .01.01"
         transform="translate(47.698435 31.693635)"
         id="path222" />
      <path
         d="m0 0 .01.01"
         transform="translate(52.353535 33.103535)"
         id="path224" />
      <path
         d="m0 0 .01.01"
         transform="translate(47.203435 25.643535)"
         id="path226" />
      <path
         d="m0 0 .01.01"
         transform="translate(45.800935 29.273535)"
         id="path228" />
      <path
         d="m0 0 .01.01"
         transform="translate(42.005935 30.098535)"
         id="path230" />
      <path
         d="m0 0 .01.01"
         transform="translate(39.778435 27.128535)"
         id="path232" />
      <path
         d="m0 0 .01.01"
         transform="translate(43.243435 26.551035)"
         id="path234" />
      <path
         d="m0 0 .01.01"
         transform="translate(33.013335 28.448535)"
         id="path236" />
      <path
         d="m0 0 .01.01"
         transform="translate(29.960835 28.696035)"
         id="path238" />
      <path
         d="m0 0 .01.01"
         transform="translate(26.495835 29.026035)"
         id="path240" />
      <path
         d="m0 0 .01.01"
         transform="translate(22.700835 29.191035)"
         id="path242" />
      <path
         d="m0 0 .01.01"
         transform="translate(19.813335 29.768535)"
         id="path244" />
      <path
         d="m0 0 .01.01"
         transform="translate(15.770735 29.686035)"
         id="path246" />
      <path
         d="m0 0 .01.01"
         transform="translate(11.480735 28.531035)"
         id="path248" />
      <path
         d="m0 0 .01.01"
         transform="translate(2.405735 28.283535)"
         id="path250" />
      <path
         d="m0 0 .01.01"
         transform="translate(5.375735 27.046035)"
         id="path252" />
      <path
         d="m0 0 .01.01"
         transform="translate(4.303235 24.406035)"
         id="path254" />
      <path
         d="m0 0 .01.01"
         transform="translate(1.415735 25.561035)"
         id="path256" />
      <path
         d="m0 0 .01.01"
         transform="translate(2.323235 22.591035)"
         id="path258" />
      <path
         d="m0 0 .01.01"
         transform="translate(5.953235 21.271035)"
         id="path260" />
      <path
         d="m0 0 .01.01"
         transform="translate(7.685735 24.241035)"
         id="path262" />
      <path
         d="m0 0 .01.01"
         transform="translate(9.253235 21.601035)"
         id="path264" />
      <path
         d="m0 0 .01.01"
         transform="translate(10.820735 25.066035)"
         id="path266" />
      <path
         d="m0 0 .01.01"
         transform="translate(12.140735 22.261035)"
         id="path268" />
      <path
         d="m0 0 .01.01"
         transform="translate(14.368235 23.251035)"
         id="path270" />
      <path
         d="m0 0 .01.01"
         transform="translate(13.460735 25.973535)"
         id="path272" />
      <path
         d="m0 0 .01.01"
         transform="translate(16.513235 25.478535)"
         id="path274" />
      <path
         d="m0 0 .01.01"
         transform="translate(19.483335 24.323535)"
         id="path276" />
      <path
         d="m0 0 .01.01"
         transform="translate(21.050835 26.551035)"
         id="path278" />
      <path
         d="m0 0 .01.01"
         transform="translate(17.915835 22.096035)"
         id="path280" />
      <path
         d="m0 0 .01.01"
         transform="translate(15.440735 20.776035)"
         id="path282" />
      <path
         d="m0 0 .01.01"
         transform="translate(12.718235 19.538535)"
         id="path284" />
      <path
         d="m0 0 .01.01"
         transform="translate(10.160735 19.373535)"
         id="path286" />
      <path
         d="m0 0 .01.01"
         transform="translate(7.025735 18.878535)"
         id="path288" />
      <path
         d="m0 0 .01.01"
         transform="translate(4.385735 18.301035)"
         id="path290" />
      <path
         d="m0 0 .01.01"
         transform="translate(1.498235 16.898535)"
         id="path292" />
      <path
         d="m0 0 .01.01"
         transform="translate(.755735 13.598435)"
         id="path294" />
      <path
         d="m0 0 .01.01"
         transform="translate(3.478235 15.001035)"
         id="path296" />
      <path
         d="m0 0 .01.01"
         transform="translate(6.530735 15.908535)"
         id="path298" />
      <path
         d="m0 0 .01.01"
         transform="translate(6.283235 13.268435)"
         id="path300" />
      <path
         d="m0 0 .01.01"
         transform="translate(3.808235 11.618435)"
         id="path302" />
      <path
         d="m0 0 .01.01"
         transform="translate(1.003235 9.885935)"
         id="path304" />
      <path
         d="m0 0 .01.01"
         transform="translate(3.808235 8.813435)"
         id="path306" />
      <path
         d="m0 0 .01.01"
         transform="translate(7.108235 10.380935)"
         id="path308" />
      <path
         d="m0 0 .01.01"
         transform="translate(9.253235 12.195935)"
         id="path310" />
      <path
         d="m0 0 .01.01"
         transform="translate(10.490735 9.308435)"
         id="path312" />
      <path
         d="m0 0 .01.01"
         transform="translate(13.048235 10.875935)"
         id="path314" />
      <path
         d="m0 0 .01.01"
         transform="translate(15.028235 9.060935)"
         id="path316" />
      <path
         d="m0 0 .01.01"
         transform="translate(17.255735 11.288435)"
         id="path318" />
      <path
         d="m0 0 .01.01"
         transform="translate(14.368235 13.350935)"
         id="path320" />
      <path
         d="m0 0 .01.01"
         transform="translate(11.645735 13.928435)"
         id="path322" />
      <path
         d="m0 0 .01.01"
         transform="translate(11.480735 16.898535)"
         id="path324" />
      <path
         d="m0 0 .01.01"
         transform="translate(14.450735 16.486035)"
         id="path326" />
      <path
         d="m0 0 .01.01"
         transform="translate(16.925735 17.888535)"
         id="path328" />
      <path
         d="m0 0 .01.01"
         transform="translate(17.420735 14.341035)"
         id="path330" />
      <path
         d="m0 0 .01.01"
         transform="translate(20.638335 14.671035)"
         id="path332" />
      <path
         d="m0 0 .01.01"
         transform="translate(20.060835 12.030935)"
         id="path334" />
      <path
         d="m0 0 .01.01"
         transform="translate(20.968335 9.390935)"
         id="path336" />
      <path
         d="m0 0 .01.01"
         transform="translate(23.195835 10.545935)"
         id="path338" />
      <path
         d="m0 0 .01.01"
         transform="translate(26.248335 11.123435)"
         id="path340" />
      <path
         d="m0 0 .01.01"
         transform="translate(25.423335 8.153435)"
         id="path342" />
      <path
         d="m0 0 .01.01"
         transform="translate(23.525835 13.350935)"
         id="path344" />
      <path
         d="m0 0 .01.01"
         transform="translate(24.185835 15.991035)"
         id="path346" />
      <path
         d="m0 0 .01.01"
         transform="translate(26.578335 19.043535)"
         id="path348" />
      <path
         d="m0 0 .01.01"
         transform="translate(22.618335 18.383535)"
         id="path350" />
      <path
         d="m0 0 .01.01"
         transform="translate(20.555835 20.033535)"
         id="path352" />
      <path
         d="m0 0 .01.01"
         transform="translate(21.380835 22.508535)"
         id="path354" />
      <path
         d="m0 0 .01.01"
         transform="translate(24.350835 20.941035)"
         id="path356" />
      <path
         d="m0 0 .01.01"
         transform="translate(26.413335 22.921035)"
         id="path358" />
      <path
         d="m0 0 .01.01"
         transform="translate(23.855835 24.571035)"
         id="path360" />
      <path
         d="m0 0 .01.01"
         transform="translate(28.558335 25.726035)"
         id="path362" />
      <path
         d="m0 0 .01.01"
         transform="translate(31.528335 25.973535)"
         id="path364" />
      <path
         d="m0 0 .01.01"
         transform="translate(32.930835 22.426035)"
         id="path366" />
      <path
         d="m0 0 .01.01"
         transform="translate(30.868335 20.281035)"
         id="path368" />
      <path
         d="m0 0 .01.01"
         transform="translate(32.105835 17.476035)"
         id="path370" />
      <path
         d="m0 0 .01.01"
         transform="translate(34.580835 18.631035)"
         id="path372" />
      <path
         d="m0 0 .01.01"
         transform="translate(36.643435 21.601035)"
         id="path374" />
      <path
         d="m0 0 .01.01"
         transform="translate(35.488435 25.396035)"
         id="path376" />
      <path
         d="m0 0 .01.01"
         transform="translate(39.118435 24.406035)"
         id="path378" />
      <path
         d="m0 0 .01.01"
         transform="translate(43.325935 23.581035)"
         id="path380" />
      <path
         d="m0 0 .01.01"
         transform="translate(40.025935 20.858535)"
         id="path382" />
      <path
         d="m0 0 .01.01"
         transform="translate(38.128435 18.301035)"
         id="path384" />
      <path
         d="m0 0 .01.01"
         transform="translate(41.675935 17.723535)"
         id="path386" />
      <path
         d="m0 0 .01.01"
         transform="translate(45.140935 17.063535)"
         id="path388" />
      <path
         d="m0 0 .01.01"
         transform="translate(47.945935 19.126035)"
         id="path390" />
      <path
         d="m0 0 .01.01"
         transform="translate(52.070935 18.631035)"
         id="path392" />
      <path
         d="m0 0 .01.01"
         transform="translate(49.760935 21.766035)"
         id="path394" />
      <path
         d="m0 0 .01.01"
         transform="translate(46.625935 22.426035)"
         id="path396" />
      <path
         d="m0 0 .01.01"
         transform="translate(47.038435 14.093535)"
         id="path398" />
      <path
         d="m0 0 .01.01"
         transform="translate(49.186835 16.853535)"
         id="path400" />
      <path
         d="m0 0 .01.01"
         transform="translate(49.595935 11.205935)"
         id="path402" />
      <path
         d="m0 0 .01.01"
         transform="translate(51.740935 8.153435)"
         id="path404" />
      <path
         d="m0 0 .01.01"
         transform="translate(47.120935 9.638435)"
         id="path406" />
      <path
         d="m0 0 .01.01"
         transform="translate(43.985935 12.195935)"
         id="path408" />
      <path
         d="m0 0 .01.01"
         transform="translate(42.748435 14.836035)"
         id="path410" />
      <path
         d="m0 0 .01.01"
         transform="translate(39.200935 14.588535)"
         id="path412" />
      <path
         d="m0 0 .01.01"
         transform="translate(40.685935 11.700935)"
         id="path414" />
      <path
         d="m0 0 .01.01"
         transform="translate(41.428435 8.895935)"
         id="path416" />
      <path
         d="m0 0 .01.01"
         transform="translate(38.128435 9.390935)"
         id="path418" />
      <path
         d="m0 0 .01.01"
         transform="translate(36.395935 11.948435)"
         id="path420" />
      <path
         d="m0 0 .01.01"
         transform="translate(33.590835 13.763535)"
         id="path422" />
      <path
         d="m0 0 .01.01"
         transform="translate(34.663335 10.050935)"
         id="path424" />
      <path
         d="m0 0 .01.01"
         transform="translate(30.950835 11.865935)"
         id="path426" />
      <path
         d="m0 0 .01.01"
         transform="translate(27.103535 14.603535)"
         id="path428" />
      <path
         d="m0 0 .01.01"
         transform="translate(29.300835 8.730935)"
         id="path430" />
      <path
         d="m0 0 .01.01"
         transform="translate(32.435835 7.988435)"
         id="path432" />
      <path
         d="m0 0 .01.01"
         transform="translate(52.400935 3.863435)"
         id="path434" />
      <path
         d="m0 0 .01.01"
         transform="translate(52.400935 .398435)"
         id="path436" />
      <path
         d="m0 0 .01.01"
         transform="translate(48.770935 6.173435)"
         id="path438" />
      <path
         d="m0 0 .01.01"
         transform="translate(45.635935 4.028435)"
         id="path440" />
      <path
         d="m0 0 .01.01"
         transform="translate(47.285935 1.223435)"
         id="path442" />
      <path
         d="m0 0 .01.01"
         transform="translate(44.150935 7.328435)"
         id="path444" />
      <path
         d="m0 0 .01.01"
         transform="translate(40.768435 5.430935)"
         id="path446" />
      <path
         d="m0 0 .01.01"
         transform="translate(42.170935 2.543435)"
         id="path448" />
      <path
         d="m0 0 .01.01"
         transform="translate(44.520235 1.020235)"
         id="path450" />
      <path
         d="m0 0 .01.01"
         transform="translate(39.853535 .353535)"
         id="path452" />
      <path
         d="m0 0 .01.01"
         transform="translate(37.186835 .686835)"
         id="path454" />
      <path
         d="m0 0 .01.01"
         transform="translate(37.853535 2.686835)"
         id="path456" />
      <path
         d="m0 0 .01.01"
         transform="translate(34.853535 2.353535)"
         id="path458" />
      <path
         d="m0 0 .01.01"
         transform="translate(29.103535 17.353535)"
         id="path460" />
      <path
         d="m0 0 .01.01"
         transform="translate(30.853535 14.853535)"
         id="path462" />
      <path
         d="m0 0 .01.01"
         transform="translate(31.363335 1.058435)"
         id="path464" />
      <path
         d="m0 0 .01.01"
         transform="translate(32.930835 4.440935)"
         id="path466" />
      <path
         d="m0 0 .01.01"
         transform="translate(36.230835 6.998435)"
         id="path468" />
      <path
         d="m0 0 .01.01"
         transform="translate(30.125835 5.760935)"
         id="path470" />
      <path
         d="m0 0 .01.01"
         transform="translate(26.578335 5.595935)"
         id="path472" />
      <path
         d="m0 0 .01.01"
         transform="translate(24.020835 4.028435)"
         id="path474" />
      <path
         d="m0 0 .01.01"
         transform="translate(25.753335 .810935)"
         id="path476" />
      <path
         d="m0 0 .01.01"
         transform="translate(22.370835 6.503435)"
         id="path478" />
      <path
         d="m0 0 .01.01"
         transform="translate(20.143335 5.018435)"
         id="path480" />
      <path
         d="m0 0 .01.01"
         transform="translate(21.793335 2.130935)"
         id="path482" />
      <path
         d="m0 0 .01.01"
         transform="translate(19.853535 .686835)"
         id="path484" />
      <path
         d="m0 0 .01.01"
         transform="translate(16.760735 6.090935)"
         id="path486" />
      <path
         d="m0 0 .01.01"
         transform="translate(18.163235 3.120935)"
         id="path488" />
      <path
         d="m0 0 .01.01"
         transform="translate(16.678235 .645935)"
         id="path490" />
      <path
         d="m0 0 .01.01"
         transform="translate(14.698235 3.780935)"
         id="path492" />
      <path
         d="m0 0 .01.01"
         transform="translate(13.130735 6.915935)"
         id="path494" />
      <path
         d="m0 0 .01.01"
         transform="translate(9.748235 6.833435)"
         id="path496" />
      <path
         d="m0 0 .01.01"
         transform="translate(6.613235 7.575935)"
         id="path498" />
      <path
         d="m0 0 .01.01"
         transform="translate(.673235 6.420935)"
         id="path500" />
      <path
         d="m0 0 .01.01"
         transform="translate(5.128235 4.275935)"
         id="path502" />
      <path
         d="m0 0 .01.01"
         transform="translate(8.263235 4.193435)"
         id="path504" />
      <path
         d="m0 0 .01.01"
         transform="translate(7.603235 .893435)"
         id="path506" />
      <path
         d="m0 0 .01.01"
         transform="translate(12.223235 .810935)"
         id="path508" />
      <path
         d="m0 0 .01.01"
         transform="translate(4.385735 1.718435)"
         id="path510" />
      <path
         d="m0 0 .01.01"
         transform="translate(1.085735 3.120935)"
         id="path512" />
      <path
         d="m0 0 .01.01"
         transform="translate(1.663235 .645935)"
         id="path514" />
    </g>
    <path
       d="m0 0c1.313 0 1.563-1.563.188-1.625-1.376-.063-1.251 1.562-.188 1.625z"
       stroke-width=".3"
       transform="translate(20.103535 52.603535)"
       id="path518" />
    <path
       d="m0 0c1.313.063 1.375-1.625.125-1.625s-1.25 1.5-.125 1.625z"
       stroke-width=".3"
       transform="translate(33.603535 50.791035)"
       id="path520" />
    <path
       d="m0 0c1.313.063 1.625-1.563.313-1.625-1.313-.063-1.313 1.562-.313 1.625z"
       stroke-width=".3"
       transform="translate(41.666035 45.916035)"
       id="path522" />
    <path
       d="m0 0c1 .063 1.438-1.375.188-1.5-1.251-.125-1.376 1.375-.188 1.5z"
       stroke-width=".3"
       transform="translate(26.228535 43.978535)"
       id="path524" />
    <path
       d="m0 0c.813.063 1.563-1.438.125-1.563s-1.25 1.438-.125 1.563z"
       stroke-width=".3"
       transform="translate(33.916035 39.916035)"
       id="path526" />
    <path
       d="m0 0c1.188-.063 1.25-1.5.125-1.563-1.125-.062-1.313 1.5-.125 1.563z"
       stroke-width=".3"
       transform="translate(11.978535 47.228535)"
       id="path528" />
    <path
       d="m0 0c1-.063 1.5-1.188.188-1.438-1.313-.25-1.501 1.313-.188 1.438z"
       stroke-width=".3"
       transform="translate(2.541035 46.166035)"
       id="path530" />
    <path
       d="m0 0c1.063.063 1.313-1.5.063-1.563-1.251-.062-.938 1.5-.063 1.563z"
       stroke-width=".3"
       transform="translate(16.791035 38.666035)"
       id="path532" />
    <path
       d="m0 0c1.25 0 1.625-1.375.125-1.563-1.5-.187-1.5 1.5-.125 1.563z"
       stroke-width=".3"
       transform="translate(6.978535 37.728535)"
       id="path534" />
    <path
       d="m0 0c0-1.313-1.813-1.25-1.938-.063-.125 1.188 1.813 1.313 1.938.063z"
       stroke-width=".3"
       transform="translate(27.978535 33.041035)"
       id="path536" />
    <path
       d="m0 0c1.188 0 1.313-1.5.125-1.625s-1.5 1.562-.125 1.625z"
       stroke-width=".3"
       transform="translate(36.041035 29.541035)"
       id="path538" />
    <path
       d="m0 0c0-1.25-1.75-1.375-1.875-.125s1.75 1.438 1.875.125z"
       stroke-width=".3"
       transform="translate(45.228535 33.353535)"
       id="path540" />
    <path
       d="m0 0c1.125.063 1.625-1.5.188-1.5-1.438 0-1.251 1.375-.188 1.5z"
       stroke-width=".3"
       transform="translate(50.853535 40.603535)"
       id="path542" />
    <path
       d="m0 0c-1.116-.154-1.188 1.375-.313 1.5.876.125 2.126-1.25.313-1.5z"
       stroke-width=".3"
       transform="translate(49.166035 50.916035)"
       id="path544" />
    <path
       d="m0 0c1.188.063 1.313-1.438.188-1.5-1.126-.063-1.438 1.25-.188 1.5z"
       stroke-width=".3"
       transform="translate(49.853535 28.103535)"
       id="path546" />
    <path
       d="m0 0c0-1.125-1.938-1.125-1.938-.063 0 1.063 1.875 1.438 1.938.063z"
       stroke-width=".3"
       transform="translate(44.853535 20.353535)"
       id="path548" />
    <path
       d="m0 0c1.313.063 1.25-1.438.188-1.5-1.063-.063-1.563 1.375-.188 1.5z"
       stroke-width=".3"
       transform="translate(36.478535 16.353535)"
       id="path550" />
    <path
       d="m0 0c0-1.313-1.875-1.188-1.938-.125-.062 1.063 1.75 1.375 1.938.125z"
       stroke-width=".3"
       transform="translate(52.728535 13.478535)"
       id="path552" />
    <path
       d="m0 0c1.188 0 1.563-1.5.188-1.625-1.376-.125-1.251 1.562-.188 1.625z"
       stroke-width=".3"
       transform="translate(28.978535 23.791035)"
       id="path554" />
    <path
       d="m0 0c0-1.313-1.813-1.375-1.813-.063 0 1.313 1.75 1.501 1.813.063z"
       stroke-width=".3"
       transform="translate(19.041035 28.103535)"
       id="path556" />
    <path
       d="m0 0c.875 0 1.625-1.813.063-1.75-1.563.062-1.501 1.813-.063 1.75z"
       stroke-width=".3"
       transform="translate(28.666035 13.166035)"
       id="path558" />
    <path
       d="m0 0c1.063-.063 1.375-1.688.063-1.75-1.313-.063-1.126 1.687-.063 1.75z"
       stroke-width=".3"
       transform="translate(19.603535 18.978535)"
       id="path560" />
    <path
       d="m0 0c0-1.125-1.875-1.625-1.938-.125-.062 1.5 1.813 1.438 1.938.125z"
       stroke-width=".3"
       transform="translate(9.978535 15.541035)"
       id="path562" />
    <path
       d="m0 0c.063-1.688-1.75-1.625-1.813-.313-.062 1.313 1.563 1.313 1.813.313z"
       stroke-width=".3"
       transform="translate(9.478535 27.166035)"
       id="path564" />
    <path
       d="m0 0c1.125 0 1.375-2 .063-2-1.313 0-1.688 1.812-.063 2z"
       stroke-width=".3"
       transform="translate(1.916035 21.228535)"
       id="path566" />
    <path
       d="m0 0c.063-1.125-2.125-1.438-2.188-.125-.062 1.313 2.063 1.625 2.188.125z"
       stroke-width=".3"
       transform="translate(3.978535 6.041035)"
       id="path568" />
    <path
       d="m0 0c1.125 0 1.5-1.688.125-1.813s-1.75 1.688-.125 1.813z"
       stroke-width=".3"
       transform="translate(12.166035 3.978535)"
       id="path570" />
    <path
       d="m0 0c1.188.063 1.25-1.563.125-1.625-1.125-.063-1.802 1.463-.125 1.625z"
       stroke-width=".3"
       transform="translate(19.291035 9.228535)"
       id="path572" />
    <path
       d="m0 0c0-1.188-1.875-1.313-1.875-.125s1.812 1.313 1.875.125z"
       stroke-width=".3"
       transform="translate(29.666035 3.291035)"
       id="path574" />
    <path
       d="m0 0c0-1.25-1.75-1.25-1.875-.125s1.687 1.563 1.875.125z"
       stroke-width=".3"
       transform="translate(38.478535 5.541035)"
       id="path576" />
    <path
       d="m0 0c1.188.063 1.438-1.625.25-1.75s-1.688 1.625-.25 1.75z"
       stroke-width=".3"
       transform="translate(47.103535 8.291035)"
       id="path578" />
    <text
       transform="matrix(0.70159896,-0.70899448,0.77663797,0.64049121,0,0)"
       id="text1103"
       y="25.856565"
       x="-20.870922"
       style="font-style:normal;font-weight:normal;font-size:28.76970291px;line-height:125%;font-family:sans-serif;letter-spacing:0px;word-spacing:0px;fill:#000000;fill-opacity:1;stroke:none;stroke-width:0.71924257px;stroke-linecap:butt;stroke-linejoin:miter;stroke-opacity:1"
       xml:space="preserve"><tspan
         style="font-style:normal;font-variant:normal;font-weight:normal;font-stretch:normal;font-size:9.58990097px;font-family:sans-serif;-inkscape-font-specification:'sans-serif, Normal';font-variant-ligatures:normal;font-variant-caps:normal;font-variant-numeric:normal;font-feature-settings:normal;text-align:start;writing-mode:lr-tb;text-anchor:start;stroke-width:0.71924257px"
         y="25.856565"
         x="-20.870922"
         id="tspan1101">DUMMY</tspan></text>
    <text
       transform="matrix(0.70159896,-0.70899448,0.77663797,0.64049121,0,0)"
       id="text1103-9"
       y="57.111511"
       x="-23.921154"
       style="font-style:normal;font-weight:normal;font-size:28.76970291px;line-height:125%;font-family:sans-serif;letter-spacing:0px;word-spacing:0px;fill:#000000;fill-opacity:1;stroke:none;stroke-width:0.71924257px;stroke-linecap:butt;stroke-linejoin:miter;stroke-opacity:1"
       xml:space="preserve"><tspan
         style="font-style:normal;font-variant:normal;font-weight:normal;font-stretch:normal;font-size:9.58990097px;font-family:sans-serif;-inkscape-font-specification:'sans-serif, Normal';font-variant-ligatures:normal;font-variant-caps:normal;font-variant-numeric:normal;font-feature-settings:normal;text-align:start;writing-mode:lr-tb;text-anchor:start;stroke-width:0.71924257px"
         y="57.111511"
         x="-23.921154"
         id="tspan1101-4">DUMMY</tspan></text>
  </g>
</svg>
