<?xml version="1.0" encoding="UTF-8" standalone="no"?>
<svg
   xmlns:dc="http://purl.org/dc/elements/1.1/"
   xmlns:cc="http://creativecommons.org/ns#"
   xmlns:rdf="http://www.w3.org/1999/02/22-rdf-syntax-ns#"
   xmlns:svg="http://www.w3.org/2000/svg"
   xmlns="http://www.w3.org/2000/svg"
   height="231"
   width="231"
   xml:space="preserve"
   viewBox="0 0 230.99999 231"
   y="0px"
   x="0px"
   id="Ebene_1"
   version="1.0"><metadata
   id="metadata23"><rdf:RDF><cc:Work
       rdf:about=""><dc:format>image/svg+xml</dc:format><dc:type
         rdf:resource="http://purl.org/dc/dcmitype/StillImage" /><dc:title></dc:title></cc:Work></rdf:RDF></metadata><defs
   id="defs21" />
<style
   id="style2"
   type="text/css">
	.st0{fill:#E52421;}
	.st1{fill:none;stroke:#FFFFFF;stroke-width:8;stroke-linejoin:round;stroke-miterlimit:10;}
	.st2{fill:none;stroke:#FFFFFF;stroke-width:8;stroke-miterlimit:10;}
	.st3{fill:none;stroke:#FFFFFF;stroke-width:8;stroke-linejoin:bevel;stroke-miterlimit:10;}
</style>
<path
   style="fill:#e52421"
   id="path4"
   d="M 219,231 H 12 C 5.4,231 0,225.6 0,219 V 12 C 0,5.4 5.4,0 12,0 h 207 c 6.6,0 12,5.4 12,12 v 207 c 0,6.6 -5.4,12 -12,12 z"
   class="st0" />
<line
   style="fill:none;stroke:#ffffff;stroke-width:8;stroke-linejoin:round;stroke-miterlimit:10"
   id="line6"
   y2="105.14"
   x2="174.99998"
   y1="105.14"
   x1="45.669998"
   class="st1" />
<g
   transform="translate(-201.33,-249.67)"
   id="g12">
	<polyline
   style="fill:none;stroke:#ffffff;stroke-width:8;stroke-miterlimit:10"
   id="polyline8"
   points="285,354.36 312.05,282 316.17,282 342.7,354.41  "
   class="st2" />
	<polyline
   style="fill:none;stroke:#ffffff;stroke-width:8;stroke-linejoin:bevel;stroke-miterlimit:10"
   id="polyline10"
   points="340.7,349.41 302.59,309.55 325,309.55 287.15,350.41  "
   class="st3" />
</g>
<g
   transform="translate(-201.33,-249.67)"
   id="g16">
	<path
   style="fill:none;stroke:#ffffff;stroke-width:8;stroke-linejoin:round;stroke-miterlimit:10"
   id="path14"
   d="m 313.91,324.06 c 0,0 0.08,16.87 0.17,37.49 0.09,20.62 0.12,39.36 0.05,41.64 -0.06,2.28 0.24,6.92 0.67,10.31 0.43,3.39 1.66,8.57 2.74,11.52 1.08,2.94 4.4,7.57 7.38,10.29 2.98,2.72 7.98,6.07 11.11,7.45 3.13,1.38 8.85,3.12 12.72,3.87 3.86,0.75 9.78,1.59 13.15,1.87 3.37,0.28 8.15,0.5 10.62,0.5 2.47,0 4.49,0 4.49,0"
   class="st1" />
</g>
</svg>